<?xml version="1.0" encoding="utf-8"?>
<!-- Generator: Adobe Illustrator 17.0.0, SVG Export Plug-In . SVG Version: 6.00 Build 0)  -->
<!DOCTYPE svg PUBLIC "-//W3C//DTD SVG 1.1//EN" "http://www.w3.org/Graphics/SVG/1.1/DTD/svg11.dtd">
<svg version="1.1" id="Layer_1" xmlns="http://www.w3.org/2000/svg" xmlns:xlink="http://www.w3.org/1999/xlink" x="0px" y="0px"
	 width="432.5px" height="792px" viewBox="0 0 432.5 792" enable-background="new 0 0 432.5 792" xml:space="preserve">
<title>icons</title>
<path fill="#AFDC67" d="M216.503,99.733c-113.435,0-205.393,91.957-205.393,205.393c0,0.032,0,0.063,0,0.095
	c0,113.474,205.393,387.046,205.393,387.046s205.393-273.572,205.393-387.046c0.052-113.435-91.862-205.435-205.298-205.488
	C216.566,99.733,216.534,99.733,216.503,99.733z M216.503,396c-57.321,0-103.788-46.468-103.788-103.788
	s46.468-103.788,103.788-103.788s103.788,46.468,103.788,103.788S273.823,396,216.503,396L216.503,396z"/>
</svg>
